<svg xmlns="http://www.w3.org/2000/svg" xmlns:xlink="http://www.w3.org/1999/xlink" version="1.1" width="256" height="256" viewBox="0 0 256 256" xml:space="preserve">

<defs>
</defs>
<g style="stroke: none; stroke-width: 0; stroke-dasharray: none; stroke-linecap: butt; stroke-linejoin: miter; stroke-miterlimit: 10; fill: none; fill-rule: nonzero; opacity: 1;" transform="translate(1.4065934065934016 1.4065934065934016) scale(2.81 2.81)" >
	<path d="M 88.695 40.131 L 71.064 9.593 c -1.739 -3.013 -4.954 -4.869 -8.433 -4.869 H 27.369 c -3.479 0 -6.693 1.856 -8.433 4.869 L 1.305 40.131 c -1.739 3.013 -1.739 6.725 0 9.737 l 17.631 30.538 c 1.739 3.013 4.954 4.869 8.433 4.869 h 35.263 c 3.479 0 6.693 -1.856 8.433 -4.869 l 17.631 -30.538 C 90.435 46.856 90.435 43.144 88.695 40.131 z M 64.768 35.745 v 5.335 c -2.516 0 -4.96 -0.492 -7.266 -1.465 c -1.482 -0.625 -2.864 -1.432 -4.126 -2.406 l 0.038 16.422 c -0.016 3.698 -1.479 7.172 -4.126 9.789 c -2.155 2.13 -4.885 3.485 -7.845 3.924 c -0.695 0.103 -1.404 0.156 -2.119 0.156 c -3.168 0 -6.176 -1.026 -8.636 -2.919 c -0.463 -0.357 -0.906 -0.743 -1.328 -1.159 c -2.87 -2.837 -4.349 -6.681 -4.1 -10.725 c 0.19 -3.078 1.422 -6.014 3.477 -8.315 c 2.719 -3.045 6.521 -4.735 10.587 -4.735 c 0.716 0 1.424 0.054 2.119 0.156 v 1.973 v 5.487 c -0.659 -0.218 -1.364 -0.337 -2.097 -0.337 c -3.715 0 -6.72 3.031 -6.665 6.748 c 0.036 2.378 1.335 4.458 3.251 5.604 c 0.901 0.538 1.936 0.872 3.042 0.933 c 0.867 0.047 1.698 -0.073 2.469 -0.328 c 2.654 -0.877 4.568 -3.37 4.568 -6.31 l 0.009 -10.997 V 22.5 h 7.347 c 0.008 0.728 0.081 1.438 0.219 2.127 c 0.555 2.786 2.125 5.203 4.31 6.851 c 1.906 1.438 4.279 2.289 6.851 2.289 c 0.002 0 0.023 0 0.021 -0.001 V 35.745 z" style="stroke: none; stroke-width: 1; stroke-dasharray: none; stroke-linecap: butt; stroke-linejoin: miter; stroke-miterlimit: 10; fill: rgb(0,0,0); fill-rule: nonzero; opacity: 1;" transform=" matrix(1 0 0 1 0 0) " stroke-linecap="round" />
</g>
</svg>